<?xml version="1.0" standalone="no"?>
<!DOCTYPE svg PUBLIC "-//W3C//DTD SVG 20010904//EN"
 "http://www.w3.org/TR/2001/REC-SVG-20010904/DTD/svg10.dtd">
<svg version="1.0" xmlns="http://www.w3.org/2000/svg"
 width="308.000000pt" height="308.000000pt" viewBox="0 0 308.000000 308.000000"
 preserveAspectRatio="xMidYMid meet">
<metadata>
Created by potrace 1.14, written by Peter Selinger 2001-2017
</metadata>
<g transform="translate(0.000000,308.000000) scale(0.100000,-0.100000)"
fill="#000000" stroke="none">
<path d="M1140 2780 l0 -50 -65 0 -65 0 0 -45 0 -45 -50 0 -50 0 0 -50 0 -50
-40 0 c-40 0 -40 0 -40 -39 0 -40 0 -40 -42 -43 l-43 -3 0 -105 0 -105 35 -3
c33 -3 102 13 125 29 11 7 127 44 193 59 41 10 42 12 42 50 0 22 -4 40 -10 40
-13 0 -171 -37 -192 -45 -16 -6 -18 1 -18 79 l0 86 45 0 45 0 0 50 0 50 65 0
65 0 0 45 0 45 345 0 345 0 0 -45 0 -46 73 3 72 3 3 43 3 42 -75 0 -76 0 0 50
0 50 -345 0 -345 0 0 -50z"/>
<path d="M1970 2590 l0 -50 45 0 45 0 0 -40 0 -40 45 0 45 0 0 -111 0 -110 48
3 47 3 3 108 3 107 -46 0 -45 0 0 39 0 40 -47 3 -48 3 -3 48 -3 47 -45 0 -44
0 0 -50z"/>
<path d="M1310 2415 l0 -45 175 0 175 0 0 45 0 45 -175 0 -175 0 0 -45z"/>
<path d="M1830 2382 l0 -39 103 -28 c56 -15 110 -30 120 -32 14 -5 17 2 17 39
0 43 -1 45 -37 56 -41 12 -178 42 -194 42 -5 0 -9 -17 -9 -38z"/>
<path d="M1210 2238 c0 -28 0 -28 -65 -28 -51 0 -65 -3 -65 -15 0 -11 -11 -15
-40 -15 -33 0 -40 -3 -40 -20 0 -18 -7 -20 -85 -20 l-85 0 0 -40 c0 -40 0 -40
-39 -40 -40 0 -51 -11 -51 -51 0 -16 -7 -19 -45 -19 l-45 0 0 75 0 75 50 0 50
0 0 50 0 50 -52 0 -53 0 3 -50 4 -50 -51 0 -51 0 0 -335 0 -335 -50 0 -50 0 0
-395 0 -395 50 0 50 0 0 -110 0 -110 50 0 50 0 0 110 0 110 -50 0 -50 0 0 389
0 390 48 3 47 3 3 133 3 132 49 0 50 0 0 50 0 50 130 0 130 0 0 43 0 44 293 6
c160 4 376 7 480 7 l187 0 0 -50 0 -50 135 0 135 0 0 -50 0 -50 53 0 52 0 -2
-47 c-1 -27 1 -85 4 -130 l6 -83 43 0 44 0 0 -395 0 -395 -45 0 -45 0 0 -110
0 -110 -50 0 c-27 0 -50 -1 -51 -2 0 -2 -3 -24 -6 -51 l-5 -47 56 0 56 0 0 50
0 50 45 0 45 0 0 110 0 110 50 0 50 0 0 395 0 395 -45 0 -45 0 0 335 0 335
-50 0 -50 0 0 50 0 50 -55 0 -55 0 0 -50 0 -50 55 0 55 0 0 -100 0 -100 -50 0
-49 0 -3 58 -3 57 -42 3 c-42 3 -43 4 -43 41 l0 38 -82 6 c-46 4 -102 7 -125
7 -41 0 -43 1 -43 30 l0 30 -70 0 -70 0 0 29 0 28 -280 0 -280 -1 0 -28z"/>
<path d="M910 1670 l0 -140 -40 0 c-38 0 -40 -2 -40 -30 l0 -30 -66 0 c-64 0
-66 -1 -60 -22 3 -13 6 -42 6 -65 0 -36 3 -43 20 -43 16 0 20 -7 20 -30 l0
-30 80 0 80 0 0 30 c0 29 1 30 50 30 47 0 50 2 50 25 0 21 -5 25 -30 25 -28 0
-30 3 -30 35 l0 35 95 0 95 0 0 100 0 100 -65 0 -65 0 0 35 0 35 65 0 65 0 0
40 0 40 -115 0 -115 0 0 -140z"/>
<path d="M1830 1640 l0 -169 73 -3 72 -3 3 -63 3 -64 42 4 c41 3 42 2 45 -29
l3 -33 60 0 c59 0 59 0 59 29 0 25 4 30 28 33 26 3 27 6 30 66 l3 62 -46 0
c-43 0 -45 1 -45 30 0 29 -2 30 -45 30 l-45 0 0 60 0 60 -50 0 -50 0 0 40 0
40 50 0 50 0 0 40 0 40 -120 0 -120 0 0 -170z"/>
<path d="M1397 1653 c-4 -3 -7 -21 -7 -39 0 -31 -2 -33 -37 -36 l-38 -3 0 -55
0 -55 43 -3 42 -3 0 55 0 56 85 0 85 0 0 -50 0 -50 45 0 45 0 0 55 0 55 -45 0
-45 0 0 40 0 40 -83 0 c-46 0 -87 -3 -90 -7z"/>
<path d="M646 444 c-3 -9 -6 -31 -6 -50 l0 -34 50 0 50 0 0 50 0 50 -44 0
c-31 0 -46 -5 -50 -16z"/>
<path d="M830 375 c0 -23 -4 -25 -42 -25 l-43 0 3 -54 4 -53 36 0 c36 1 37 1
40 -41 l3 -42 665 0 664 0 0 39 c0 40 0 40 43 43 l42 3 3 53 3 52 -45 0 c-42
0 -46 2 -46 25 l0 25 -130 0 -130 0 0 -45 0 -45 130 0 130 0 0 -30 0 -30 -107
0 c-60 0 -357 -1 -660 -3 l-553 -3 0 33 0 33 120 0 120 0 0 45 0 45 -125 0
-125 0 0 -25z"/>
</g>
</svg>
